# xmcd CD database file
#
# Track frame offsets:
#	150
#	17145
#	38195
#	57242
#	76237
#	97535
#	117107
#	136640
#	157892
#	177607
#
# Disc length: 2634 seconds
#
# Revision: 3
# Processed by: cddbd v1.5.2PL0 Copyright (c) Steve Scherf et al.
# Submitted via: CDex 1.70beta3
#
DISCID=6c0a480a
DTITLE=杏里 - WAVE
DYEAR=1985
DGENRE=JPop
TTITLE0=CITY FICTION
TTITLE1=夜明けのSOLDIER
TTITLE2=INTO THE BODY
TTITLE3=LONG ISLAND BEACH
TTITLE4=WAVE
TTITLE5=TAKE IT
TTITLE6=LOVER'S NIGHT
TTITLE7=16(Sixteen)BEAT
TTITLE8=OVERSEA CALL
TTITLE9=瞳は永遠の香り
EXTD=YEAR: 1985
EXTT0=
EXTT1=
EXTT2=
EXTT3=
EXTT4=
EXTT5=
EXTT6=
EXTT7=
EXTT8=
EXTT9=
PLAYORDER=
